<mxfile host="app.diagrams.net" modified="2023-10-07T21:50:28.890Z" agent="Mozilla/5.0 (Windows NT 10.0; Win64; x64) AppleWebKit/537.36 (KHTML, like Gecko) Chrome/117.0.0.0 Safari/537.36" version="22.0.4" etag="CeA0ZldcKu6dZWLjAWU7" type="github">
  <diagram name="Страница — 1" id="l9a44PDTYvx-Y1zhLbaU">
    <mxGraphModel>
      <root>
        <mxCell id="0" />
        <mxCell id="1" parent="0" />
      </root>
    </mxGraphModel>
  </diagram>
</mxfile>
